<svg width="49" height="59" viewBox="0 0 49 59" fill="none" xmlns="http://www.w3.org/2000/svg">
<path d="M25.3023 26.3C25.0884 26.9 23.6976 26.9 23.4837 26.3C21.879 22 22.2 17.5 22.307 13.1C22.4139 8.80002 22.6279 4.30002 23.5907 0.100024C23.5907 2.44156e-05 23.9116 2.44156e-05 23.9116 0.100024C25.0884 4.30002 25.5163 8.80002 25.8372 13.1C26.1581 17.5 26.693 22 25.3023 26.3Z" fill="white"/>
<path d="M23.5907 31.7999C23.8047 31.1999 25.1953 31.2999 25.4093 31.7999C27.014 36.0999 26.6931 40.5999 26.5861 44.9999C26.4791 49.2999 26.2651 53.7999 25.3024 57.9999C25.3024 58.0999 25.0884 58.0999 24.9814 57.9999C23.8047 53.7999 23.3768 49.2999 23.0559 44.9999C22.7349 40.5999 22.307 36.1999 23.5907 31.7999Z" fill="white"/>
<path d="M21.4512 28.6C21.986 28.7 21.879 29.7 21.3441 29.8C17.8139 30.7 14.1767 30.4 10.6465 30.2C7.2232 30.1 3.58601 29.8 0.162752 29C0.0557753 29 0.0557753 28.8 0.162752 28.8C3.69298 28.1 7.33019 28 10.8604 27.9C14.3907 27.8 18.0279 27.5 21.4512 28.6Z" fill="white"/>
<path d="M27.4419 29.6C27.014 29.4 27.0139 28.5 27.5488 28.3C31.079 27.4 34.7163 27.7 38.2465 27.9C41.7767 28.1 45.414 28.4 48.7303 29.1C48.8372 29.1 48.8372 29.3 48.7303 29.3C45.307 30 41.5628 30.2 38.1395 30.3C34.5023 30.4 30.8651 30.6 27.4419 29.6Z" fill="white"/>
</svg>
